<?xml version="1.0" encoding="UTF-8"?>
<svg id="Layer_1" xmlns="http://www.w3.org/2000/svg" version="1.1" viewBox="0 0 159.11 24.14">
  <!-- Generator: Adobe Illustrator 30.5.1, SVG Export Plug-In . SVG Version: 2.1.4 Build 3)  -->
  <defs>
    <style>
      .st0 {
        fill: #fff;
      }

      .st1 {
        display: none;
        fill: #070507;
      }
    </style>
  </defs>
  <rect class="st1" x="-31.77" y="-50.74" width="222.49" height="125.61"/>
  <g>
    <path class="st0" d="M21.88,17.33c-.57,1.21-1.9,2.1-3.24,2.11,0,0,.13,0,.12,0h-7.26c-.99,0-1.94.39-2.63,1.09l-2.51,2.51C4.01,25.39,0,23.72,0,20.4v-.43c0-.99.39-1.94,1.1-2.64l4.29-4.27c.7-.7,1.64-1.09,2.63-1.09h2.21c3.41,0,5.03-4.2,2.5-6.49h0c-1.47-1.34-3.74-1.28-5.14.13l-1.22,1.22C4.02,9.18,0,7.52,0,4.2v-.47C.01,1.67,1.68,0,3.73,0h7.43,0s13.21.01,13.21.01c.17,0,.34.01.51.03,2.33.32,3.56,2.97,2.56,5.1l-5.55,12.18Z"/>
    <g>
      <path class="st0" d="M140.34,7.15v7.93h0v.25c0,2.54-2.06,4.6-4.6,4.6s-4.6-2.06-4.6-4.6v-.25h0v-7.93h-2.63v8.18c0,3.99,3.24,7.23,7.23,7.23s7.23-3.24,7.23-7.23V7.15h-2.63Z"/>
      <path class="st0" d="M147.28,22.55v-7.93h0v-.25c0-2.54,2.06-4.6,4.6-4.6s4.6,2.06,4.6,4.6v.25h0v7.93h2.63v-8.18c0-3.99-3.24-7.23-7.23-7.23s-7.23,3.24-7.23,7.23v8.18h2.63Z"/>
      <path class="st0" d="M47.55,22.55h-2.86l-2.66-5.9h-9.65l-2.66,5.9h-2.83L35.74,3.07h2.95l8.86,19.49ZM33.41,14.35h7.62l-3.84-8.44-3.78,8.44Z"/>
      <path class="st0" d="M75.01,22.55v-7.93h0v-.25c0-2.54,2.06-4.6,4.6-4.6s4.6,2.06,4.6,4.6v.25h0v7.93h2.63v-8.18c0-3.99-3.24-7.23-7.23-7.23-1.75,0-3.35.62-4.6,1.65V3.07h-2.63v19.49h2.63Z"/>
      <path class="st0" d="M61.84,14.85c0-1.52-.23-2.85-.69-4-.46-1.15-1.21-2.06-2.26-2.72-1.04-.66-2.43-.99-4.16-.99s-3.11.33-4.19.99c-1.08.66-1.87,1.57-2.36,2.73-.49,1.16-.74,2.49-.74,3.99s.27,2.85.81,4.02c.54,1.16,1.37,2.07,2.48,2.72,1.09.64,2.5.96,4.21.97h4.97v-2.51h-4.97c-1.45-.01-2.59-.38-3.4-1.1-.83-.74-1.28-1.78-1.36-3.11h11.66v-.97ZM50.21,13.64c.16-1.26.59-2.24,1.29-2.94.7-.7,1.78-1.05,3.23-1.05s2.54.37,3.25,1.12c.71.75,1.06,1.7,1.06,2.86h-8.83Z"/>
      <path class="st0" d="M102.82,14.85c0-1.52-.23-2.85-.69-4-.46-1.15-1.21-2.06-2.26-2.72-1.04-.66-2.43-.99-4.16-.99s-3.11.33-4.19.99c-1.08.66-1.87,1.57-2.36,2.73-.49,1.16-.74,2.49-.74,3.99s.27,2.85.81,4.02c.54,1.16,1.37,2.07,2.48,2.72,1.09.64,2.5.96,4.21.97h4.97v-2.51h-4.97c-1.45-.01-2.59-.38-3.4-1.1-.83-.74-1.28-1.78-1.36-3.11h11.66v-.97ZM91.19,13.64c.16-1.26.59-2.24,1.29-2.94.7-.7,1.78-1.05,3.23-1.05s2.54.37,3.25,1.12c.71.75,1.06,1.7,1.06,2.86h-8.83Z"/>
      <path class="st0" d="M126.83,14.85c0-1.52-.23-2.85-.69-4-.46-1.15-1.21-2.06-2.26-2.72-1.04-.66-2.43-.99-4.16-.99s-3.11.33-4.19.99c-1.08.66-1.87,1.57-2.36,2.73-.49,1.16-.74,2.49-.74,3.99s.27,2.85.81,4.02c.54,1.16,1.37,2.07,2.48,2.72,1.09.64,2.5.96,4.21.97h4.97v-2.51h-4.97c-1.45-.01-2.59-.38-3.4-1.1-.83-.74-1.28-1.78-1.36-3.11h11.66v-.97ZM115.19,13.64c.16-1.26.59-2.24,1.29-2.94.7-.7,1.78-1.05,3.23-1.05s2.54.37,3.25,1.12c.71.75,1.06,1.7,1.06,2.86h-8.83Z"/>
      <path class="st0" d="M68.83,19.48c-.58-.54-.87-1.61-.87-3.2v-6.65h.02v.02h2.32v-2.5h-2.34V3.07h-2.61l.04,4.08h-2.3v2.48h2.18v6.68c0,2.22.48,3.85,1.43,4.87.84.91,2.1,1.35,3.72,1.37v-2.48c-.67-.04-1.21-.23-1.6-.59Z"/>
      <path class="st0" d="M111.57,7.15c-3.99,0-7.23,3.24-7.23,7.23v8.18h2.63v-7.93h0v-.25c0-2.54,2.06-4.6,4.6-4.6,0,0,0,0,0,0v-2.63h0Z"/>
    </g>
  </g>
</svg>