<svg width="122" height="35" viewBox="0 0 122 35" fill="none" xmlns="http://www.w3.org/2000/svg">
<path d="M24.54 2.96826H0V10.7783H17.93C9.14002 12.0983 2.07 18.6583 0 27.1883H7.18002C9.28002 21.4783 14.77 17.4083 21.21 17.4083C22.35 17.4083 23.47 17.5383 24.54 17.7883V10.7883V2.97826V2.96826Z" fill="#00233D"/>
<path d="M16.7199 20.1981V27.1881H24.5299V19.8981C23.4899 19.6681 22.3899 19.5181 21.2799 19.5181C19.6799 19.5181 18.16 19.7481 16.71 20.1981H16.7199Z" fill="#00233D"/>
<path d="M70.32 19.1784H56.26C56.36 20.5984 56.93 21.6884 57.97 22.4584C59.02 23.2284 60.3501 23.6084 61.9901 23.6084C62.9001 23.6084 63.64 23.5184 64.19 23.3384C64.74 23.1584 65.19 22.9284 65.54 22.6584C65.89 22.3784 66.23 22.1084 66.57 21.8484L69.42 24.1184C68.79 24.7484 68.17 25.2884 67.55 25.7384C66.92 26.1984 66.18 26.5484 65.31 26.7984C64.44 27.0484 63.3401 27.1784 61.9901 27.1784C59.8301 27.1784 58.02 26.7784 56.58 25.9684C55.14 25.1684 54.06 24.0484 53.35 22.6384C52.64 21.2184 52.29 19.5984 52.29 17.7684C52.29 15.9384 52.6 14.3584 53.23 12.9384C53.85 11.5184 54.84 10.3984 56.19 9.5884C57.54 8.7684 59.29 8.3584 61.45 8.3584C63.61 8.3584 65.3801 8.7684 66.6801 9.5884C67.9801 10.4084 68.91 11.5184 69.47 12.9384C70.03 14.3584 70.32 15.9684 70.32 17.7684V19.1784ZM56.3 16.0684H66.32C66.32 14.9184 65.92 13.9384 65.11 13.1284C64.3 12.3184 63.09 11.9184 61.45 11.9184C59.81 11.9184 58.63 12.2884 57.83 13.0184C57.02 13.7484 56.51 14.7684 56.3 16.0684Z" fill="#004492"/>
<path d="M51.5999 23.5382H38.5699L51.7199 4.57822V2.92822H33.2399V6.56822H46.0199L32.8999 25.4882V27.1782H55.4099C55.4099 27.1782 53.0199 26.5582 51.5899 23.5382H51.5999Z" fill="#004492"/>
<path d="M82.8401 5.75828C82.2301 5.75828 81.7001 5.53828 81.2601 5.09828C80.8201 4.65828 80.6001 4.11828 80.6001 3.47828C80.6001 2.83828 80.8201 2.33828 81.2601 1.89828C81.7001 1.45828 82.2301 1.23828 82.8401 1.23828C83.4501 1.23828 83.9801 1.45828 84.4201 1.89828C84.8601 2.33828 85.0801 2.86828 85.0801 3.47828C85.0801 4.08828 84.8601 4.65828 84.4201 5.09828C83.9801 5.53828 83.4501 5.75828 82.8401 5.75828ZM84.7501 8.40828V27.2183H80.8601V8.40828H84.7501Z" fill="#004492"/>
<path d="M96.7597 3.66834C96.1097 3.86834 95.5797 4.19834 95.2197 4.82834C94.8497 5.44834 94.6697 6.38833 94.6697 7.63833V8.40834H102.8V12.0083H94.6697V27.2183H90.7797V12.0083H88.4297V8.40834H90.7797V7.56833C90.7797 5.70833 91.0797 4.20833 91.6797 3.06833C92.2797 1.92833 93.1397 1.11834 94.2697 0.62834C94.2697 0.62834 96.3497 -0.701663 103.29 0.508337V3.97834C103.29 3.97834 98.8697 3.01833 96.7597 3.67833V3.66834Z" fill="#004492"/>
<path d="M77.2596 0.0283203H73.1396V27.2383H77.2596V0.0283203Z" fill="#004492"/>
<path d="M117.9 8.4082L113.09 20.6582L107.95 8.4082H104L111.18 25.5282L107.81 34.1182H111.76L121.84 8.4082H117.9Z" fill="#004492"/>
</svg>
